<svg width="20" height="20" viewBox="0 0 20 20" fill="none" xmlns="http://www.w3.org/2000/svg">
<path d="M7.5 1.25H5C4.30977 1.25 3.75 1.80977 3.75 2.5V5C3.75 5.69023 4.30977 6.25 5 6.25H7.5C8.19023 6.25 8.75 5.69023 8.75 5V2.5C8.75 1.80977 8.19023 1.25 7.5 1.25ZM7.5 7.5H5C4.30977 7.5 3.75 8.05977 3.75 8.75V11.25C3.75 11.9402 4.30977 12.5 5 12.5H7.5C8.19023 12.5 8.75 11.9402 8.75 11.25V8.75C8.75 8.05977 8.19023 7.5 7.5 7.5ZM7.5 13.75H5C4.30977 13.75 3.75 14.3098 3.75 15V17.5C3.75 18.1902 4.30977 18.75 5 18.75H7.5C8.19023 18.75 8.75 18.1902 8.75 17.5V15C8.75 14.3098 8.19023 13.75 7.5 13.75ZM15 1.25H12.5C11.8098 1.25 11.25 1.80977 11.25 2.5V5C11.25 5.69023 11.8098 6.25 12.5 6.25H15C15.6902 6.25 16.25 5.69023 16.25 5V2.5C16.25 1.80977 15.6902 1.25 15 1.25ZM15 7.5H12.5C11.8098 7.5 11.25 8.05977 11.25 8.75V11.25C11.25 11.9402 11.8098 12.5 12.5 12.5H15C15.6902 12.5 16.25 11.9402 16.25 11.25V8.75C16.25 8.05977 15.6902 7.5 15 7.5ZM15 13.75H12.5C11.8098 13.75 11.25 14.3098 11.25 15V17.5C11.25 18.1902 11.8098 18.75 12.5 18.75H15C15.6902 18.75 16.25 18.1902 16.25 17.5V15C16.25 14.3098 15.6902 13.75 15 13.75Z" fill="#E7EAEC"/>
</svg>
